<mxfile host="65bd71144e">
    <diagram id="HIP3nbAZw_EuaXWnEj3U" name="Page-1">
        <mxGraphModel dx="1086" dy="751" grid="1" gridSize="10" guides="1" tooltips="1" connect="1" arrows="1" fold="1" page="1" pageScale="1" pageWidth="850" pageHeight="1100" math="0" shadow="0">
            <root>
                <mxCell id="0"/>
                <mxCell id="1" parent="0"/>
                <mxCell id="7" value="http://ics2o.mths.ca" style="swimlane;whiteSpace=wrap;html=1;" parent="1" vertex="1">
                    <mxGeometry x="20" y="50" width="760" height="480" as="geometry"/>
                </mxCell>
                <mxCell id="8" value="&lt;font style=&quot;font-size: 20px;&quot;&gt;Random Dice number picker&lt;/font&gt;" style="text;html=1;align=center;verticalAlign=middle;resizable=0;points=[];autosize=1;strokeColor=none;fillColor=none;" vertex="1" parent="7">
                    <mxGeometry x="210" y="50" width="280" height="40" as="geometry"/>
                </mxCell>
                <mxCell id="9" value="Pick a number" style="shape=callout;whiteSpace=wrap;html=1;perimeter=calloutPerimeter;fontSize=20;position2=0.53;" vertex="1" parent="7">
                    <mxGeometry x="40" y="130" width="190" height="60" as="geometry"/>
                </mxCell>
                <mxCell id="10" value="1" style="rounded=0;whiteSpace=wrap;html=1;fontSize=20;" vertex="1" parent="7">
                    <mxGeometry x="65" y="190" width="140" height="30" as="geometry"/>
                </mxCell>
                <mxCell id="15" value="5" style="rounded=0;whiteSpace=wrap;html=1;fontSize=20;" vertex="1" parent="7">
                    <mxGeometry x="65" y="310" width="140" height="30" as="geometry"/>
                </mxCell>
                <mxCell id="14" value="3" style="rounded=0;whiteSpace=wrap;html=1;fontSize=20;" vertex="1" parent="7">
                    <mxGeometry x="65" y="250" width="140" height="30" as="geometry"/>
                </mxCell>
                <mxCell id="13" value="4" style="rounded=0;whiteSpace=wrap;html=1;fontSize=20;" vertex="1" parent="7">
                    <mxGeometry x="65" y="280" width="140" height="30" as="geometry"/>
                </mxCell>
                <mxCell id="12" value="6" style="rounded=0;whiteSpace=wrap;html=1;fontSize=20;" vertex="1" parent="7">
                    <mxGeometry x="65" y="340" width="140" height="30" as="geometry"/>
                </mxCell>
                <mxCell id="11" value="2" style="rounded=0;whiteSpace=wrap;html=1;fontSize=20;" vertex="1" parent="7">
                    <mxGeometry x="65" y="220" width="140" height="30" as="geometry"/>
                </mxCell>
                <mxCell id="16" value="Your number is:____output..." style="text;html=1;align=center;verticalAlign=middle;resizable=0;points=[];autosize=1;strokeColor=none;fillColor=none;fontSize=20;" vertex="1" parent="7">
                    <mxGeometry x="60" y="410" width="280" height="40" as="geometry"/>
                </mxCell>
                <mxCell id="17" value="img" style="whiteSpace=wrap;html=1;aspect=fixed;fontSize=20;" vertex="1" parent="7">
                    <mxGeometry x="480" y="30" width="280" height="280" as="geometry"/>
                </mxCell>
            </root>
        </mxGraphModel>
    </diagram>
</mxfile>